<svg xmlns="http://www.w3.org/2000/svg" width="24" height="24" viewBox="0 0 24 24" fill="none">
  <path d="M13.732 3.2511L12.2325 10.6713L17.6657 10.6882L10.2696 20.747L11.7698 12.5839L6.33658 12.5658L13.732 3.2511ZM13.7327 2C13.6968 2 13.6609 2.00125 13.6257 2.00376C13.391 2.02128 13.2355 2.09576 13.0514 2.21217C12.949 2.276 12.8553 2.35486 12.7729 2.44561C12.7483 2.47252 12.7257 2.50069 12.7044 2.52948L5.25511 11.8122C4.96132 12.1921 4.91745 12.6928 5.14344 13.1115C5.36944 13.5302 5.82542 13.7956 6.32594 13.7993L10.1632 13.8256L8.95682 20.5186C8.84249 21.0938 9.16819 21.667 9.74116 21.898C9.91199 21.9668 10.0915 22 10.2683 22C10.6864 22 11.0293 21.816 11.2873 21.4837L18.7452 11.4248C19.039 11.0449 19.0822 10.5436 18.8568 10.1255C18.6308 9.70685 18.1749 9.44148 17.6743 9.43835L13.837 9.43209L15.0308 3.54775C15.0561 3.45325 15.0687 3.35499 15.0687 3.2536C15.0687 2.57642 14.4964 2.02441 13.7799 2.0025C13.7639 2.00188 13.7486 2.00188 13.7327 2.00188V2Z" fill="#8E90A3"/>
  <path d="M13.732 3.2511L12.2325 10.6713L17.6657 10.6882L10.2696 20.747L11.7698 12.5839L6.33658 12.5658L13.732 3.2511ZM13.7327 2C13.6968 2 13.6609 2.00125 13.6257 2.00376C13.391 2.02128 13.2355 2.09576 13.0514 2.21217C12.949 2.276 12.8553 2.35486 12.7729 2.44561C12.7483 2.47252 12.7257 2.50069 12.7044 2.52948L5.25511 11.8122C4.96132 12.1921 4.91745 12.6928 5.14344 13.1115C5.36944 13.5302 5.82542 13.7956 6.32594 13.7993L10.1632 13.8256L8.95682 20.5186C8.84249 21.0938 9.16819 21.667 9.74116 21.898C9.91199 21.9668 10.0915 22 10.2683 22C10.6864 22 11.0293 21.816 11.2873 21.4837L18.7452 11.4248C19.039 11.0449 19.0822 10.5436 18.8568 10.1255C18.6308 9.70685 18.1749 9.44148 17.6743 9.43835L13.837 9.43209L15.0308 3.54775C15.0561 3.45325 15.0687 3.35499 15.0687 3.2536C15.0687 2.57642 14.4964 2.02441 13.7799 2.0025C13.7639 2.00188 13.7486 2.00188 13.7327 2.00188V2Z" fill="#8E90A3"/>
</svg>