<svg xmlns="http://www.w3.org/2000/svg" width="24" height="24" viewBox="0 0 24 24" fill="none">
  <path fill-rule="evenodd" clip-rule="evenodd" d="M12 8.7485C15.5899 8.7485 18.5 11.6587 18.5 15.2485C18.5 18.8384 15.5899 21.7485 12 21.7485C8.41015 21.7485 5.5 18.8384 5.5 15.2485C5.5 11.6587 8.41015 8.7485 12 8.7485ZM12 7.2485C16.4183 7.2485 20 10.8302 20 15.2485C20 19.6668 16.4183 23.2485 12 23.2485C7.58172 23.2485 4 19.6668 4 15.2485C4 10.8302 7.58172 7.2485 12 7.2485Z" fill="#8E90A3"/>
  <path fill-rule="evenodd" clip-rule="evenodd" d="M12 8.7485C15.5899 8.7485 18.5 11.6587 18.5 15.2485C18.5 18.8384 15.5899 21.7485 12 21.7485C8.41015 21.7485 5.5 18.8384 5.5 15.2485C5.5 11.6587 8.41015 8.7485 12 8.7485ZM12 7.2485C16.4183 7.2485 20 10.8302 20 15.2485C20 19.6668 16.4183 23.2485 12 23.2485C7.58172 23.2485 4 19.6668 4 15.2485C4 10.8302 7.58172 7.2485 12 7.2485Z" fill="#8E90A3"/>
  <path fill-rule="evenodd" clip-rule="evenodd" d="M7.50781 5.68214L8.49557 6.811L12.0017 3.74315L15.5078 6.811L16.4956 5.68214L12.0017 1.75L7.50781 5.68214Z" fill="#8E90A3"/>
</svg>