<svg xmlns="http://www.w3.org/2000/svg" width="24" height="24" viewBox="0 0 24 24" fill="none">
  <path fill-rule="evenodd" clip-rule="evenodd" d="M12 16.25C15.5899 16.25 18.5 13.3399 18.5 9.75C18.5 6.16015 15.5899 3.25 12 3.25C8.41015 3.25 5.5 6.16015 5.5 9.75C5.5 13.3399 8.41015 16.25 12 16.25ZM12 17.75C16.4183 17.75 20 14.1683 20 9.75C20 5.33172 16.4183 1.75 12 1.75C7.58172 1.75 4 5.33172 4 9.75C4 14.1683 7.58172 17.75 12 17.75Z" fill="#8E90A3"/>
  <path fill-rule="evenodd" clip-rule="evenodd" d="M12 16.25C15.5899 16.25 18.5 13.3399 18.5 9.75C18.5 6.16015 15.5899 3.25 12 3.25C8.41015 3.25 5.5 6.16015 5.5 9.75C5.5 13.3399 8.41015 16.25 12 16.25ZM12 17.75C16.4183 17.75 20 14.1683 20 9.75C20 5.33172 16.4183 1.75 12 1.75C7.58172 1.75 4 5.33172 4 9.75C4 14.1683 7.58172 17.75 12 17.75Z" fill="#8E90A3"/>
  <path fill-rule="evenodd" clip-rule="evenodd" d="M7.50781 19.3164L8.49557 18.1875L12.0017 21.2554L15.5078 18.1875L16.4956 19.3164L12.0017 23.2485L7.50781 19.3164Z" fill="#8E90A3"/>
</svg>