<svg xmlns="http://www.w3.org/2000/svg" width="24" height="24" viewBox="0 0 24 24" fill="none">
  <path fill-rule="evenodd" clip-rule="evenodd" d="M9.88259 18.6417C10.7967 20.3177 13.2032 20.3177 14.1174 18.6417L19.7021 8.40315C20.5787 6.79592 19.4154 4.8363 17.5847 4.8363H6.41532C4.58453 4.8363 3.42124 6.79592 4.29791 8.40315L9.88259 18.6417ZM13.0587 18.0642L18.6434 7.82568C19.0817 7.02206 18.5001 6.04225 17.5847 6.04225H12.603V18.5335C12.7857 18.4288 12.9452 18.2723 13.0587 18.0642ZM10.9413 18.0642C11.0548 18.2723 11.2143 18.4288 11.397 18.5335V6.04225H6.41532C5.49993 6.04225 4.91828 7.02206 5.35661 7.82568L10.9413 18.0642Z" fill="#8E90A3"/>
</svg>