<svg xmlns="http://www.w3.org/2000/svg" width="24" height="24" viewBox="0 0 24 24" fill="none">
  <path fill-rule="evenodd" clip-rule="evenodd" d="M7.25 9C7.25 8.58579 7.58579 8.25 8 8.25H14C14.4142 8.25 14.75 8.58579 14.75 9C14.75 9.41421 14.4142 9.75 14 9.75H8C7.58579 9.75 7.25 9.41421 7.25 9Z" fill="#8E90A3"/>
  <path fill-rule="evenodd" clip-rule="evenodd" d="M17.25 12C17.25 10.4812 18.4812 9.25 20 9.25H22C22.9665 9.25 23.75 10.0335 23.75 11V13C23.75 13.9665 22.9665 14.75 22 14.75H20C18.4812 14.75 17.25 13.5188 17.25 12ZM20 10.75C19.3096 10.75 18.75 11.3096 18.75 12C18.75 12.6904 19.3096 13.25 20 13.25H22C22.1381 13.25 22.25 13.1381 22.25 13V11C22.25 10.8619 22.1381 10.75 22 10.75H20Z" fill="#8E90A3"/>
  <path fill-rule="evenodd" clip-rule="evenodd" d="M8 4.25C7.75575 4.25 7.52398 4.26744 7.30405 4.30128L7.28339 4.30416C6.17606 4.44312 5.30559 4.91721 4.70955 5.61651C4.11197 6.31761 3.75 7.29287 3.75 8.5V15.5C3.75 16.8296 4.18991 17.8793 4.90533 18.5947C5.62075 19.3101 6.67044 19.75 8 19.75H17C18.3296 19.75 19.3793 19.3101 20.0947 18.5947C20.8101 17.8793 21.25 16.8296 21.25 15.5V14.8H20.04C18.6304 14.8 17.2623 13.7693 17.133 12.2467C17.0522 11.3845 17.3805 10.579 17.9493 10.02C18.4609 9.49815 19.1623 9.20001 19.92 9.20001H21.25V8.5C21.25 7.2847 20.8817 6.30336 20.2747 5.59999C19.6691 4.89822 18.7851 4.42541 17.6634 4.29497C17.6511 4.29354 17.6389 4.29181 17.6267 4.28978C17.4468 4.2598 17.2446 4.25 17 4.25H8ZM7.08633 2.81713C7.38313 2.77204 7.68789 2.75 8 2.75H17C17.2697 2.75 17.5608 2.75975 17.8545 2.80711C19.305 2.97974 20.5395 3.6109 21.4103 4.62C22.2833 5.63163 22.75 6.9753 22.75 8.5V9.95001C22.75 10.3642 22.4142 10.7 22 10.7H19.92C19.5609 10.7 19.2451 10.8392 19.0173 11.0732L19.0039 11.0867C18.7378 11.3464 18.5892 11.7162 18.6266 12.1089L18.6275 12.1177C18.6804 12.7527 19.2909 13.3 20.04 13.3H22C22.4142 13.3 22.75 13.6358 22.75 14.05V15.5C22.75 17.1704 22.1899 18.6207 21.1553 19.6553C20.1207 20.6899 18.6704 21.25 17 21.25H8C6.32956 21.25 4.87925 20.6899 3.84467 19.6553C2.81009 18.6207 2.25 17.1704 2.25 15.5V8.5C2.25 6.98713 2.70803 5.65239 3.56796 4.64349C4.42737 3.63519 5.64812 2.9999 7.08633 2.81713Z" fill="#8E90A3"/>
</svg>