<svg xmlns="http://www.w3.org/2000/svg" width="24" height="24" viewBox="0 0 24 24" fill="none">
  <path d="M7.60315 6.6344C9.65586 4.49269 12.8578 4.12773 15.3015 5.58L14.7927 5.71872C14.3931 5.82769 14.1575 6.23998 14.2664 6.63961C14.3754 7.03923 14.7877 7.27486 15.1873 7.16589L17.1563 6.62902C17.4169 6.55794 17.6192 6.35213 17.6858 6.09025C17.7524 5.82838 17.673 5.55094 17.4779 5.36397C14.3849 2.39952 9.48467 2.5035 6.52022 5.59648C6.23361 5.89552 6.24368 6.37029 6.54272 6.6569C6.84176 6.94352 7.31653 6.93344 7.60315 6.6344Z" fill="#8E90A3"/>
  <path fill-rule="evenodd" clip-rule="evenodd" d="M3 10.0014C1.89543 10.0014 1 10.8968 1 12.0014V18.0014C1 19.106 1.89543 20.0014 3 20.0014H9C10.1046 20.0014 11 19.106 11 18.0014V12.0014C11 10.8968 10.1046 10.0014 9 10.0014H3ZM3 11.5014C2.72386 11.5014 2.5 11.7252 2.5 12.0014V13.5014H9.5V12.0014C9.5 11.7252 9.27614 11.5014 9 11.5014H3ZM9 18.5014C9.27614 18.5014 9.5 18.2775 9.5 18.0014V15.0014H2.5V18.0014C2.5 18.2775 2.72386 18.5014 3 18.5014H9Z" fill="#8E90A3"/>
  <path fill-rule="evenodd" clip-rule="evenodd" d="M15 10.0014C13.8954 10.0014 13 10.8968 13 12.0014V18.0014C13 19.106 13.8954 20.0014 15 20.0014H21C22.1046 20.0014 23 19.106 23 18.0014V12.0014C23 10.8968 22.1046 10.0014 21 10.0014H15ZM21 11.5014C21.2761 11.5014 21.5 11.7252 21.5 12.0014V13.5014H14.5V12.0014C14.5 11.7252 14.7239 11.5014 15 11.5014H21ZM15 18.5014C14.7239 18.5014 14.5 18.2775 14.5 18.0014V15.0014H21.5V18.0014C21.5 18.2775 21.2761 18.5014 21 18.5014H15Z" fill="#8E90A3"/>
</svg>