<svg xmlns="http://www.w3.org/2000/svg" width="16" height="16" viewBox="0 0 16 16" fill="none">
  <path d="M9.08375 1.33583C9.10724 1.33416 9.13117 1.33333 9.1551 1.33333V1.33458C9.15709 1.33458 9.15907 1.33458 9.16104 1.33458C9.16957 1.33459 9.17792 1.33466 9.18656 1.335C9.66426 1.3496 10.0458 1.71761 10.0458 2.16906C10.0458 2.23665 10.0374 2.30216 10.0205 2.36516L9.22467 6.28806L11.7829 6.29223C12.1166 6.29432 12.4205 6.47123 12.5712 6.75036C12.7214 7.02908 12.6926 7.36329 12.4968 7.61655L7.52481 14.3224C7.35288 14.544 7.12422 14.6667 6.84549 14.6667C6.72762 14.6667 6.60797 14.6445 6.49409 14.5987C6.11211 14.4447 5.89497 14.0625 5.97119 13.6791L6.77548 9.21708L4.21727 9.19956C3.8836 9.19706 3.57961 9.02015 3.42894 8.74101C3.27828 8.46188 3.30752 8.12809 3.50339 7.87482L8.46957 1.68631C8.48375 1.66712 8.49882 1.64834 8.51521 1.6304C8.57016 1.5699 8.63264 1.51733 8.70089 1.47477C8.82363 1.39717 8.92733 1.34751 9.08375 1.33583Z" fill="#A33FBC"/>
</svg>