<svg width="16" height="16" viewBox="0 0 16 16" fill="none" xmlns="http://www.w3.org/2000/svg">
<path fill-rule="evenodd" clip-rule="evenodd" d="M10.3535 2.36642C10.5487 2.56168 10.5487 2.87826 10.3535 3.07352L6.0068 7.42019C5.68873 7.73826 5.68873 8.26168 6.0068 8.57975L10.3535 12.9264C10.5487 13.1217 10.5487 13.4383 10.3535 13.6335C10.1582 13.8288 9.84163 13.8288 9.64636 13.6335L5.2997 9.28686C4.5911 8.57826 4.5911 7.42168 5.2997 6.71308L9.64636 2.36642C9.84163 2.17116 10.1582 2.17116 10.3535 2.36642Z" fill="#1A86E5"/>
<path fill-rule="evenodd" clip-rule="evenodd" d="M10.3535 2.36642C10.5487 2.56168 10.5487 2.87826 10.3535 3.07352L6.0068 7.42019C5.68873 7.73826 5.68873 8.26168 6.0068 8.57975L10.3535 12.9264C10.5487 13.1217 10.5487 13.4383 10.3535 13.6335C10.1582 13.8288 9.84163 13.8288 9.64636 13.6335L5.2997 9.28686C4.5911 8.57826 4.5911 7.42168 5.2997 6.71308L9.64636 2.36642C9.84163 2.17116 10.1582 2.17116 10.3535 2.36642Z" fill="#1A86E5"/>
</svg>
