<svg width="32" height="32" viewBox="0 0 32 32" fill="none" xmlns="http://www.w3.org/2000/svg">
<path d="M18.3092 4.33463L16.3098 14.2282L23.5541 14.2508L13.6926 27.6625L15.6929 16.7784L8.44861 16.7542L18.3092 4.33463ZM18.3101 2.6665C18.2622 2.6665 18.2144 2.66817 18.1674 2.67151C17.8545 2.69488 17.6471 2.79418 17.4017 2.94939C17.2652 3.03451 17.1402 3.13965 17.0303 3.26065C16.9975 3.29654 16.9674 3.33409 16.939 3.37247L7.00665 15.7495C6.61493 16.256 6.55643 16.9236 6.85776 17.4819C7.15909 18.0401 7.76707 18.394 8.43443 18.399L13.5508 18.434L11.9423 27.358C11.7898 28.1248 12.2241 28.8892 12.9881 29.1972C13.2158 29.2889 13.4551 29.3332 13.6909 29.3332C14.2483 29.3332 14.7056 29.0878 15.0495 28.6447L24.9934 15.233C25.3851 14.7264 25.4427 14.058 25.1423 13.5006C24.841 12.9423 24.233 12.5885 23.5656 12.5843L18.4492 12.576L20.0409 4.73018C20.0746 4.60417 20.0915 4.47315 20.0915 4.33797C20.0915 3.43506 19.3284 2.69905 18.373 2.66984C18.3517 2.66901 18.3313 2.66901 18.3101 2.66901V2.6665Z" fill="#7B879D"/>
<path d="M18.3092 4.33463L16.3098 14.2282L23.5541 14.2508L13.6926 27.6625L15.6929 16.7784L8.44861 16.7542L18.3092 4.33463ZM18.3101 2.6665C18.2622 2.6665 18.2144 2.66817 18.1674 2.67151C17.8545 2.69488 17.6471 2.79418 17.4017 2.94939C17.2652 3.03451 17.1402 3.13965 17.0303 3.26065C16.9975 3.29654 16.9674 3.33409 16.939 3.37247L7.00665 15.7495C6.61493 16.256 6.55643 16.9236 6.85776 17.4819C7.15909 18.0401 7.76707 18.394 8.43443 18.399L13.5508 18.434L11.9423 27.358C11.7898 28.1248 12.2241 28.8892 12.9881 29.1972C13.2158 29.2889 13.4551 29.3332 13.6909 29.3332C14.2483 29.3332 14.7056 29.0878 15.0495 28.6447L24.9934 15.233C25.3851 14.7264 25.4427 14.058 25.1423 13.5006C24.841 12.9423 24.233 12.5885 23.5656 12.5843L18.4492 12.576L20.0409 4.73018C20.0746 4.60417 20.0915 4.47315 20.0915 4.33797C20.0915 3.43506 19.3284 2.69905 18.373 2.66984C18.3517 2.66901 18.3313 2.66901 18.3101 2.66901V2.6665Z" fill="#7B879D"/>
</svg>
