<svg width="65" height="64" viewBox="0 0 65 64" fill="none" xmlns="http://www.w3.org/2000/svg">
<path d="M36.8351 5.34327C36.929 5.33659 37.0248 5.33325 37.1205 5.33325V5.33826C37.1285 5.33826 37.1364 5.33826 37.1442 5.33827C37.1784 5.33832 37.2118 5.33857 37.2463 5.33993C39.1571 5.39834 40.6833 6.87037 40.6833 8.67618C40.6833 8.94655 40.6496 9.20858 40.5822 9.46059L37.3988 25.1522L47.6316 25.1689C48.9663 25.1772 50.1822 25.8848 50.7849 27.0014C51.3858 28.1162 51.2706 29.4531 50.4871 30.4661L30.5993 57.2897C29.9116 58.1759 28.997 58.6666 27.8821 58.6666C27.4106 58.6666 26.932 58.5781 26.4764 58.3945C24.9485 57.7787 24.08 56.2499 24.3849 54.7162L27.602 36.8683L17.3692 36.7982C16.0345 36.7882 14.8185 36.0805 14.2159 34.964C13.6132 33.8475 13.7302 32.5123 14.5136 31.4992L34.3784 6.74519C34.4351 6.66842 34.4954 6.59332 34.561 6.52155C34.7807 6.27955 35.0307 6.06926 35.3036 5.89903C35.7946 5.5886 36.2094 5.39 36.8351 5.34327Z" fill="#A33FBC"/>
</svg>
