<svg width="16" height="16" viewBox="0 0 16 16" fill="none" xmlns="http://www.w3.org/2000/svg">
<path d="M9.08369 1.33576C9.10718 1.33409 9.13111 1.33325 9.15504 1.33325V1.3345C9.15703 1.3345 9.15901 1.3345 9.16098 1.33451C9.16951 1.33452 9.17786 1.33458 9.1865 1.33492C9.6642 1.34952 10.0457 1.71753 10.0457 2.16898C10.0457 2.23658 10.0373 2.30208 10.0205 2.36509L9.22461 6.28798L11.7828 6.29215C12.1165 6.29424 12.4205 6.47115 12.5711 6.75028C12.7214 7.029 12.6926 7.36321 12.4967 7.61648L7.52475 14.3224C7.35282 14.5439 7.12416 14.6666 6.84543 14.6666C6.72756 14.6666 6.60791 14.6445 6.49403 14.5986C6.11205 14.4446 5.89491 14.0624 5.97113 13.679L6.77542 9.21701L4.21721 9.19948C3.88353 9.19698 3.57955 9.02007 3.42888 8.74094C3.27822 8.4618 3.30746 8.12801 3.50333 7.87475L8.46951 1.68624C8.48369 1.66704 8.49876 1.64827 8.51515 1.63033C8.5701 1.56983 8.63258 1.51725 8.70083 1.4747C8.82357 1.39709 8.92727 1.34744 9.08369 1.33576Z" fill="white"/>
</svg>
