<svg width="32" height="32" viewBox="0 0 32 32" fill="none" xmlns="http://www.w3.org/2000/svg">
<path fill-rule="evenodd" clip-rule="evenodd" d="M10.3332 9.33333C6.64546 9.33333 3.6665 12.3123 3.6665 16C3.6665 19.6877 6.64546 22.6667 10.3332 22.6667C14.0209 22.6667 16.9998 19.6877 16.9998 16C16.9998 15.4477 17.4476 15 17.9998 15C18.5521 15 18.9998 15.4477 18.9998 16C18.9998 20.7923 15.1255 24.6667 10.3332 24.6667C5.54089 24.6667 1.6665 20.7923 1.6665 16C1.6665 11.2077 5.54089 7.33333 10.3332 7.33333C10.8855 7.33333 11.3332 7.78105 11.3332 8.33333C11.3332 8.88562 10.8855 9.33333 10.3332 9.33333Z" fill="#7B879D"/>
<path fill-rule="evenodd" clip-rule="evenodd" d="M21.3332 9C17.4721 9 14.3332 12.139 14.3332 16C14.3332 16.5523 13.8855 17 13.3332 17C12.7809 17 12.3332 16.5523 12.3332 16C12.3332 11.0344 16.3676 7 21.3332 7C26.2988 7 30.3332 11.0344 30.3332 16C30.3332 20.9656 26.2988 25 21.3332 25C20.7809 25 20.3332 24.5523 20.3332 24C20.3332 23.4477 20.7809 23 21.3332 23C25.1942 23 28.3332 19.861 28.3332 16C28.3332 12.139 25.1942 9 21.3332 9Z" fill="#7B879D"/>
</svg>
