<svg width="17" height="16" viewBox="0 0 17 16" fill="none" xmlns="http://www.w3.org/2000/svg">
<path fill-rule="evenodd" clip-rule="evenodd" d="M8.14641 3.64645C8.34167 3.45118 8.65825 3.45118 8.85351 3.64645L12.1868 6.97978C12.3821 7.17504 12.3821 7.49162 12.1868 7.68689C11.9916 7.88215 11.675 7.88215 11.4797 7.68689L8.49996 4.70711L5.52018 7.68689C5.32492 7.88215 5.00833 7.88215 4.81307 7.68689C4.61781 7.49162 4.61781 7.17504 4.81307 6.97978L8.14641 3.64645ZM4.81307 11.6464L8.14641 8.31311C8.34167 8.11785 8.65825 8.11785 8.85351 8.31311L12.1868 11.6464C12.3821 11.8417 12.3821 12.1583 12.1868 12.3536C11.9916 12.5488 11.675 12.5488 11.4797 12.3536L8.49996 9.37377L5.52018 12.3536C5.32492 12.5488 5.00833 12.5488 4.81307 12.3536C4.61781 12.1583 4.61781 11.8417 4.81307 11.6464Z" fill="#1A86E5"/>
<path fill-rule="evenodd" clip-rule="evenodd" d="M8.14641 3.64645C8.34167 3.45118 8.65825 3.45118 8.85351 3.64645L12.1868 6.97978C12.3821 7.17504 12.3821 7.49162 12.1868 7.68689C11.9916 7.88215 11.675 7.88215 11.4797 7.68689L8.49996 4.70711L5.52018 7.68689C5.32492 7.88215 5.00833 7.88215 4.81307 7.68689C4.61781 7.49162 4.61781 7.17504 4.81307 6.97978L8.14641 3.64645ZM4.81307 11.6464L8.14641 8.31311C8.34167 8.11785 8.65825 8.11785 8.85351 8.31311L12.1868 11.6464C12.3821 11.8417 12.3821 12.1583 12.1868 12.3536C11.9916 12.5488 11.675 12.5488 11.4797 12.3536L8.49996 9.37377L5.52018 12.3536C5.32492 12.5488 5.00833 12.5488 4.81307 12.3536C4.61781 12.1583 4.61781 11.8417 4.81307 11.6464Z" fill="#1A86E5"/>
</svg>
