<svg xmlns="http://www.w3.org/2000/svg" width="24" height="24" viewBox="0 0 24 24" fill="none">
  <path d="M9.67796 10.1956C8.35006 8.9105 6.48723 8.09154 4.92348 9.50278C4.41248 9.96255 4.04675 10.5884 3.8861 11.2589C3.69469 12.0539 3.83825 12.7803 4.19202 13.3789C4.50648 13.9121 4.98671 14.3479 5.55239 14.6481C6.11979 14.9498 6.7658 15.1126 7.40668 15.0951C8.11079 15.0759 8.81491 14.8333 9.40623 14.3112C10.2419 13.5721 10.9717 12.4674 11.6843 11.3898C12.4637 10.2116 13.2225 9.06376 14.1539 8.2879C14.8187 7.73394 15.5296 7.37633 16.2508 7.17997C17.2865 6.899 18.3222 6.96126 19.2638 7.26778C20.1901 7.56791 21.0207 8.10111 21.6599 8.77162C22.2034 9.33994 22.6169 10.0168 22.8425 10.74C23.1707 11.7937 22.9724 13.0564 22.3743 14.1612C21.9504 14.9418 21.3215 15.6586 20.5319 16.1759C19.7201 16.7075 18.7426 17.0284 17.6488 16.998C16.3978 16.9629 15.0169 16.4712 13.5933 15.3058L14.7777 14.0414C15.8561 14.9243 16.8422 15.2946 17.6984 15.3186C18.3786 15.3377 18.9904 15.135 19.5031 14.7997C20.038 14.4501 20.4704 13.9536 20.7678 13.4045C21.1711 12.6605 21.3147 11.8479 21.1164 11.2094C20.9694 10.7368 20.6892 10.285 20.3149 9.89231C19.8705 9.42615 19.3032 9.05897 18.6811 8.85623C18.0744 8.65987 17.4096 8.61676 16.7533 8.79556C16.2867 8.92168 15.8133 9.16434 15.3536 9.54748C14.6068 10.1701 13.9197 11.2078 13.2156 12.2742C12.4397 13.4476 11.645 14.6497 10.647 15.5309C9.71043 16.3595 8.58419 16.7442 7.45624 16.7761C6.48039 16.8033 5.50796 16.5622 4.66371 16.112C3.81603 15.6618 3.09141 15.0009 2.61288 14.1899C2.05916 13.2528 1.83528 12.1209 2.13094 10.8901C2.36849 9.90348 2.91367 8.97915 3.6776 8.29109C4.19202 7.82812 4.80555 7.46893 5.49429 7.26618C6.18815 7.06184 6.95037 7.01873 7.75703 7.18796C8.79611 7.40667 9.89501 7.97979 10.9785 9.03024L9.67796 10.1956Z" fill="white"/>
  <path d="M9.67796 10.1956C8.35006 8.9105 6.48723 8.09154 4.92348 9.50278C4.41248 9.96255 4.04675 10.5884 3.8861 11.2589C3.69469 12.0539 3.83825 12.7803 4.19202 13.3789C4.50648 13.9121 4.98671 14.3479 5.55239 14.6481C6.11979 14.9498 6.7658 15.1126 7.40668 15.0951C8.11079 15.0759 8.81491 14.8333 9.40623 14.3112C10.2419 13.5721 10.9717 12.4674 11.6843 11.3898C12.4637 10.2116 13.2225 9.06376 14.1539 8.2879C14.8187 7.73394 15.5296 7.37633 16.2508 7.17997C17.2865 6.899 18.3222 6.96126 19.2638 7.26778C20.1901 7.56791 21.0207 8.10111 21.6599 8.77162C22.2034 9.33994 22.6169 10.0168 22.8425 10.74C23.1707 11.7937 22.9724 13.0564 22.3743 14.1612C21.9504 14.9418 21.3215 15.6586 20.5319 16.1759C19.7201 16.7075 18.7426 17.0284 17.6488 16.998C16.3978 16.9629 15.0169 16.4712 13.5933 15.3058L14.7777 14.0414C15.8561 14.9243 16.8422 15.2946 17.6984 15.3186C18.3786 15.3377 18.9904 15.135 19.5031 14.7997C20.038 14.4501 20.4704 13.9536 20.7678 13.4045C21.1711 12.6605 21.3147 11.8479 21.1164 11.2094C20.9694 10.7368 20.6892 10.285 20.3149 9.89231C19.8705 9.42615 19.3032 9.05897 18.6811 8.85623C18.0744 8.65987 17.4096 8.61676 16.7533 8.79556C16.2867 8.92168 15.8133 9.16434 15.3536 9.54748C14.6068 10.1701 13.9197 11.2078 13.2156 12.2742C12.4397 13.4476 11.645 14.6497 10.647 15.5309C9.71043 16.3595 8.58419 16.7442 7.45624 16.7761C6.48039 16.8033 5.50796 16.5622 4.66371 16.112C3.81603 15.6618 3.09141 15.0009 2.61288 14.1899C2.05916 13.2528 1.83528 12.1209 2.13094 10.8901C2.36849 9.90348 2.91367 8.97915 3.6776 8.29109C4.19202 7.82812 4.80555 7.46893 5.49429 7.26618C6.18815 7.06184 6.95037 7.01873 7.75703 7.18796C8.79611 7.40667 9.89501 7.97979 10.9785 9.03024L9.67796 10.1956Z" fill="white"/>
</svg>