<svg width="40" height="40" viewBox="0 0 40 40" fill="none" xmlns="http://www.w3.org/2000/svg">
<path fill-rule="evenodd" clip-rule="evenodd" d="M20.0002 5.83325C17.1983 5.83325 14.4593 6.66411 12.1296 8.22077C9.79989 9.77742 7.98412 11.9899 6.91188 14.5786C5.83964 17.1672 5.55909 20.0156 6.10571 22.7637C6.65234 25.5118 8.00158 28.036 9.98282 30.0173C11.9641 31.9985 14.4883 33.3478 17.2364 33.8944C19.9845 34.441 22.8329 34.1604 25.4215 33.0882C28.0101 32.016 30.2227 30.2002 31.7793 27.8705C33.336 25.5408 34.1668 22.8018 34.1668 19.9999C34.1668 19.3096 34.7265 18.7499 35.4168 18.7499C36.1072 18.7499 36.6668 19.3096 36.6668 19.9999C36.6668 23.2963 35.6893 26.5186 33.858 29.2594C32.0266 32.0002 29.4237 34.1364 26.3782 35.3979C23.3328 36.6594 19.9817 36.9894 16.7487 36.3463C13.5156 35.7033 10.5459 34.1159 8.21506 31.785C5.88418 29.4542 4.29684 26.4844 3.65375 23.2514C3.01066 20.0184 3.34072 16.6673 4.60218 13.6219C5.86364 10.5764 7.99985 7.97345 10.7407 6.14209C13.4815 4.31073 16.7038 3.33325 20.0002 3.33325C20.6905 3.33325 21.2502 3.8929 21.2502 4.58325C21.2502 5.27361 20.6905 5.83325 20.0002 5.83325Z" fill="#7B879D"/>
<path fill-rule="evenodd" clip-rule="evenodd" d="M20.0002 5.83325C17.1983 5.83325 14.4593 6.66411 12.1296 8.22077C9.79989 9.77742 7.98412 11.9899 6.91188 14.5786C5.83964 17.1672 5.55909 20.0156 6.10571 22.7637C6.65234 25.5118 8.00158 28.036 9.98282 30.0173C11.9641 31.9985 14.4883 33.3478 17.2364 33.8944C19.9845 34.441 22.8329 34.1604 25.4215 33.0882C28.0101 32.016 30.2227 30.2002 31.7793 27.8705C33.336 25.5408 34.1668 22.8018 34.1668 19.9999C34.1668 19.3096 34.7265 18.7499 35.4168 18.7499C36.1072 18.7499 36.6668 19.3096 36.6668 19.9999C36.6668 23.2963 35.6893 26.5186 33.858 29.2594C32.0266 32.0002 29.4237 34.1364 26.3782 35.3979C23.3328 36.6594 19.9817 36.9894 16.7487 36.3463C13.5156 35.7033 10.5459 34.1159 8.21506 31.785C5.88418 29.4542 4.29684 26.4844 3.65375 23.2514C3.01066 20.0184 3.34072 16.6673 4.60218 13.6219C5.86364 10.5764 7.99985 7.97345 10.7407 6.14209C13.4815 4.31073 16.7038 3.33325 20.0002 3.33325C20.6905 3.33325 21.2502 3.8929 21.2502 4.58325C21.2502 5.27361 20.6905 5.83325 20.0002 5.83325Z" fill="#7B879D"/>
</svg>
