<svg width="32" height="32" viewBox="0 0 32 32" fill="none" xmlns="http://www.w3.org/2000/svg">
<path fill-rule="evenodd" clip-rule="evenodd" d="M10.2788 5.639C9.33376 6.81218 9.00002 8.51984 9.00002 10.6667V13.3334C9.00002 13.8856 8.55231 14.3334 8.00002 14.3334C7.44774 14.3334 7.00002 13.8856 7.00002 13.3334V10.6667C7.00002 8.4002 7.33295 6.10786 8.72125 4.38437C10.1472 2.61417 12.4955 1.66669 16 1.66669C19.5045 1.66669 21.8529 2.61417 23.2788 4.38437C24.6671 6.10786 25 8.4002 25 10.6667V13.3334C25 13.8856 24.5523 14.3334 24 14.3334C23.4477 14.3334 23 13.8856 23 13.3334V10.6667C23 8.51984 22.6663 6.81218 21.7213 5.639C20.8139 4.51253 19.1622 3.66669 16 3.66669C12.8378 3.66669 11.1862 4.51253 10.2788 5.639Z" fill="#C4CAD4"/>
<path fill-rule="evenodd" clip-rule="evenodd" d="M16 19C14.7114 19 13.6667 20.0447 13.6667 21.3334C13.6667 22.622 14.7114 23.6667 16 23.6667C17.2887 23.6667 18.3334 22.622 18.3334 21.3334C18.3334 20.0447 17.2887 19 16 19ZM11.6667 21.3334C11.6667 18.9401 13.6068 17 16 17C18.3933 17 20.3334 18.9401 20.3334 21.3334C20.3334 23.7266 18.3933 25.6667 16 25.6667C13.6068 25.6667 11.6667 23.7266 11.6667 21.3334Z" fill="#C4CAD4"/>
<path fill-rule="evenodd" clip-rule="evenodd" d="M4.70713 15.3738C4.02514 16.0558 3.66669 17.3262 3.66669 20V22.6667C3.66669 25.3405 4.02514 26.6109 4.70713 27.2929C5.38912 27.9749 6.65954 28.3334 9.33335 28.3334H22.6667C25.3405 28.3334 26.6109 27.9749 27.2929 27.2929C27.9749 26.6109 28.3334 25.3405 28.3334 22.6667V20C28.3334 17.3262 27.9749 16.0558 27.2929 15.3738C26.6109 14.6918 25.3405 14.3334 22.6667 14.3334H9.33335C6.65954 14.3334 5.38912 14.6918 4.70713 15.3738ZM3.29291 13.9596C4.61092 12.6416 6.67383 12.3334 9.33335 12.3334H22.6667C25.3262 12.3334 27.3891 12.6416 28.7071 13.9596C30.0251 15.2776 30.3334 17.3405 30.3334 20V22.6667C30.3334 25.3262 30.0251 27.3891 28.7071 28.7071C27.3891 30.0251 25.3262 30.3334 22.6667 30.3334H9.33335C6.67383 30.3334 4.61092 30.0251 3.29291 28.7071C1.97491 27.3891 1.66669 25.3262 1.66669 22.6667V20C1.66669 17.3405 1.97491 15.2776 3.29291 13.9596Z" fill="#C4CAD4"/>
</svg>
