<svg width="17" height="16" viewBox="0 0 17 16" fill="none" xmlns="http://www.w3.org/2000/svg">
<path fill-rule="evenodd" clip-rule="evenodd" d="M7.08835 12.428C7.69779 13.5453 9.30212 13.5453 9.91155 12.428L13.6347 5.60224C14.2191 4.53075 13.4436 3.22434 12.2231 3.22434H4.77684C3.55632 3.22434 2.78079 4.53076 3.36523 5.60224L7.08835 12.428ZM9.20575 12.043L12.9289 5.21726C13.2211 4.68152 12.8333 4.02831 12.2231 4.02831H8.90193V12.3558C9.02373 12.286 9.13008 12.1817 9.20575 12.043ZM7.79415 12.043C7.86982 12.1817 7.97617 12.286 8.09797 12.3558V4.02831H4.77684C4.16658 4.02831 3.77881 4.68152 4.07104 5.21726L7.79415 12.043Z" fill="#29A352"/>
</svg>
