<svg xmlns="http://www.w3.org/2000/svg" width="24" height="24" viewBox="0 0 24 24" fill="none">
  <path fill-rule="evenodd" clip-rule="evenodd" d="M9.88261 18.6417C10.7968 20.3177 13.2033 20.3177 14.1174 18.6417L19.7021 8.40315C20.5788 6.79592 19.4155 4.8363 17.5847 4.8363H6.41534C4.58456 4.8363 3.42126 6.79592 4.29793 8.40315L9.88261 18.6417ZM13.0587 18.0642L18.6434 7.82568C19.0817 7.02206 18.5001 6.04225 17.5847 6.04225H12.603V18.5335C12.7857 18.4288 12.9452 18.2723 13.0587 18.0642ZM10.9413 18.0642C11.0548 18.2723 11.2143 18.4288 11.397 18.5335V6.04225H6.41534C5.49995 6.04225 4.9183 7.02206 5.35664 7.82568L10.9413 18.0642Z" fill="white"/>
</svg>