<svg width="16" height="16" viewBox="0 0 16 16" fill="none" xmlns="http://www.w3.org/2000/svg">
<path fill-rule="evenodd" clip-rule="evenodd" d="M7.66634 0.833328C3.8924 0.833328 0.833008 3.89272 0.833008 7.66666C0.833008 11.4406 3.8924 14.5 7.66634 14.5C11.4403 14.5 14.4997 11.4406 14.4997 7.66666C14.4997 3.89272 11.4403 0.833328 7.66634 0.833328ZM1.83301 7.66666C1.83301 4.445 4.44468 1.83333 7.66634 1.83333C10.888 1.83333 13.4997 4.445 13.4997 7.66666C13.4997 10.8883 10.888 13.5 7.66634 13.5C4.44468 13.5 1.83301 10.8883 1.83301 7.66666Z" fill="#7B879D"/>
<path d="M13.6866 12.9798C13.4913 12.7845 13.1747 12.7845 12.9795 12.9798C12.7842 13.175 12.7842 13.4916 12.9795 13.6869L14.3128 15.0202C14.5081 15.2155 14.8246 15.2155 15.0199 15.0202C15.2152 14.825 15.2152 14.5084 15.0199 14.3131L13.6866 12.9798Z" fill="#7B879D"/>
<path fill-rule="evenodd" clip-rule="evenodd" d="M7.66634 0.833328C3.8924 0.833328 0.833008 3.89272 0.833008 7.66666C0.833008 11.4406 3.8924 14.5 7.66634 14.5C11.4403 14.5 14.4997 11.4406 14.4997 7.66666C14.4997 3.89272 11.4403 0.833328 7.66634 0.833328ZM1.83301 7.66666C1.83301 4.445 4.44468 1.83333 7.66634 1.83333C10.888 1.83333 13.4997 4.445 13.4997 7.66666C13.4997 10.8883 10.888 13.5 7.66634 13.5C4.44468 13.5 1.83301 10.8883 1.83301 7.66666Z" fill="#7B879D"/>
<path d="M13.6866 12.9798C13.4913 12.7845 13.1747 12.7845 12.9795 12.9798C12.7842 13.175 12.7842 13.4916 12.9795 13.6869L14.3128 15.0202C14.5081 15.2155 14.8246 15.2155 15.0199 15.0202C15.2152 14.825 15.2152 14.5084 15.0199 14.3131L13.6866 12.9798Z" fill="#7B879D"/>
</svg>
