<svg width="25" height="24" viewBox="0 0 25 24" fill="none" xmlns="http://www.w3.org/2000/svg">
<path fill-rule="evenodd" clip-rule="evenodd" d="M11.9888 2.75C9.94414 2.75 8.29883 4.40311 8.29883 6.44C8.29883 8.42302 9.8479 10.032 11.8037 10.1189C11.9223 10.1106 12.0476 10.1102 12.1658 10.1188C14.1197 10.031 15.6697 8.42308 15.6788 6.43847C15.678 4.40339 14.0241 2.75 11.9888 2.75ZM6.79883 6.44C6.79883 3.57689 9.11351 1.25 11.9888 1.25C14.853 1.25 17.1788 3.57579 17.1788 6.44L17.1788 6.44313C17.1672 9.24352 14.9598 11.5259 12.174 11.6196C12.1407 11.6207 12.1074 11.6196 12.0742 11.6163C12.026 11.6115 11.9539 11.6108 11.8867 11.6169C11.8558 11.6197 11.8247 11.6206 11.7936 11.6196C9.00842 11.526 6.79883 9.24337 6.79883 6.44Z" fill="white"/>
<path fill-rule="evenodd" clip-rule="evenodd" d="M11.9841 13.9297C10.2831 13.9297 8.62192 14.3629 7.39613 15.183L7.39449 15.1841C6.34107 15.885 5.91406 16.7352 5.91406 17.4909C5.91406 18.247 6.34146 19.1001 7.3957 19.8061C8.62727 20.6269 10.284 21.0597 11.9891 21.0597C12.4033 21.0597 12.7391 21.3955 12.7391 21.8097C12.7391 22.2239 12.4033 22.5597 11.9891 22.5597C10.0544 22.5597 8.0914 22.0726 6.56304 21.0537L6.56185 21.0529C5.1965 20.1389 4.41406 18.8623 4.41406 17.4909C4.41406 16.1194 5.19674 14.8449 6.56281 13.9358C8.08691 12.9163 10.0553 12.4297 11.9841 12.4297C13.9131 12.4297 15.8819 12.9165 17.4061 13.9363C17.7504 14.1667 17.8427 14.6325 17.6124 14.9768C17.3821 15.321 16.9163 15.4134 16.572 15.183C15.3462 14.3629 13.685 13.9297 11.9841 13.9297Z" fill="white"/>
<path fill-rule="evenodd" clip-rule="evenodd" d="M20.4697 16.4697C20.7626 16.1768 21.2374 16.1768 21.5303 16.4697L24.0607 19L21.5303 21.5303C21.2374 21.8232 20.7626 21.8232 20.4697 21.5303C20.1768 21.2374 20.1768 20.7626 20.4697 20.4697L21.1893 19.75H15.5C15.0858 19.75 14.75 19.4142 14.75 19C14.75 18.5858 15.0858 18.25 15.5 18.25H21.1893L20.4697 17.5303C20.1768 17.2374 20.1768 16.7626 20.4697 16.4697Z" fill="white"/>
</svg>
