<svg width="16" height="16" viewBox="0 0 16 16" fill="none" xmlns="http://www.w3.org/2000/svg">
<path d="M3.41084 8.49389L2.42712 7.39469C2.40659 7.37165 2.38036 7.35442 2.35105 7.34474C2.32175 7.33506 2.29042 7.33328 2.2602 7.33956C2.19872 7.3523 2.14868 7.3966 2.12851 7.4562L1.87769 8.20214C1.86747 8.23253 1.86573 8.26512 1.87266 8.29642C1.87959 8.32772 1.89492 8.35654 1.91702 8.37977L2.48649 8.98047C2.51028 9.00553 2.5409 9.02304 2.57456 9.03082C2.60822 9.03861 2.64343 9.03633 2.67581 9.02426L3.34088 8.77681C3.3678 8.7668 3.39187 8.75036 3.41099 8.72893C3.43012 8.7075 3.44372 8.68172 3.45061 8.65384C3.45751 8.62595 3.45749 8.59681 3.45056 8.56893C3.44363 8.54106 3.43 8.5153 3.41084 8.49389Z" fill="#576175"/>
<path d="M12.6118 8.63641C12.6187 8.6643 12.6323 8.69007 12.6514 8.71149C12.6706 8.7329 12.6946 8.74931 12.7216 8.75928L13.3866 9.00672C13.419 9.01878 13.4542 9.02106 13.4879 9.01328C13.5215 9.00549 13.5521 8.98798 13.5759 8.96293L14.1454 8.36226C14.1903 8.31478 14.2055 8.24646 14.1847 8.18464L13.9339 7.43874C13.9241 7.40949 13.9067 7.38333 13.8836 7.36287C13.8605 7.34241 13.8325 7.32837 13.8023 7.32214C13.772 7.31592 13.7407 7.31773 13.7114 7.3274C13.6821 7.33706 13.6559 7.35425 13.6353 7.37723L12.6516 8.47637C12.6325 8.49782 12.6189 8.52359 12.6119 8.55147C12.605 8.57935 12.6049 8.60851 12.6118 8.63641Z" fill="#576175"/>
<path d="M15.1183 6.03519C15.1505 6.03525 15.1825 6.02892 15.2123 6.01657C15.2422 6.00423 15.2693 5.98611 15.2921 5.96326L15.5376 5.71753C15.574 5.68109 15.598 5.63413 15.6062 5.58328C15.6145 5.53244 15.6065 5.4803 15.5835 5.43423L15.338 4.94349C15.3176 4.9027 15.2862 4.86839 15.2474 4.84442C15.2086 4.82044 15.1639 4.80774 15.1183 4.80773H14.1363C14.104 4.80769 14.0721 4.81402 14.0423 4.82636C14.0125 4.83871 13.9855 4.85682 13.9627 4.87966L13.7172 5.12515C13.6808 5.16156 13.6567 5.20851 13.6484 5.25935C13.6402 5.3102 13.6481 5.36236 13.6711 5.40845L13.8618 5.7897L13.768 5.97726L13.4177 5.27662C13.2095 4.86178 12.9138 4.49697 12.5511 4.20726C12.0435 3.80163 11.4237 3.56154 10.7753 3.51939L8.01543 3.33527C8.00456 3.33453 7.99365 3.33453 7.98278 3.33527L5.22295 3.51939C4.57199 3.56172 3.94986 3.80353 3.44117 4.21192C3.08115 4.5009 2.7876 4.86404 2.58048 5.27662L2.22991 5.97726L2.13614 5.7897L2.32664 5.40845C2.34964 5.36236 2.35756 5.3102 2.34928 5.25935C2.34099 5.20851 2.31693 5.16156 2.28048 5.12515L2.03499 4.87966C2.0123 4.85681 1.98529 4.83868 1.95554 4.82633C1.92579 4.81399 1.89389 4.80766 1.86167 4.80773H0.879706C0.786664 4.80773 0.701724 4.86027 0.65999 4.94349L0.414498 5.43423C0.391464 5.4803 0.383503 5.53244 0.391742 5.58328C0.39998 5.63413 0.424002 5.68109 0.460405 5.71753L0.705898 5.96326C0.728702 5.98611 0.755795 6.00423 0.785623 6.01657C0.815451 6.02892 0.847424 6.03525 0.879706 6.03519H1.70996L1.82682 6.26915L1.26095 6.5522C1.22278 6.5714 1.19022 6.60016 1.16644 6.63567L0.675456 7.37214C0.6486 7.41242 0.634251 7.45974 0.634213 7.50815V10.6372C0.634213 10.8515 0.727255 11.0491 0.880442 11.1905H0.879706V11.6665C0.879706 12.0809 1.21014 12.418 1.61618 12.418H2.59815C2.9411 12.418 3.22784 12.1764 3.3091 11.8521L4.04656 11.9258C4.08791 11.93 4.12967 11.9236 4.16783 11.9071L5.16689 11.9071C5.16689 11.9071 5.25301 11.927 5.29857 11.927L10.9449 11.927L11.1086 11.9069L11.8304 11.9069C11.8684 11.9237 11.9101 11.9302 11.9514 11.9258L12.6844 11.8524C12.721 12.0142 12.812 12.1587 12.9422 12.2616C13.0724 12.3645 13.2339 12.4197 13.3998 12.418H14.3818C14.7878 12.418 15.1183 12.0809 15.1183 11.6665V11.1905H15.1175C15.1946 11.1204 15.2564 11.035 15.2987 10.9397C15.3411 10.8445 15.3633 10.7414 15.3637 10.6372V7.50815C15.3637 7.45978 15.3493 7.41216 15.3225 7.3719L14.8315 6.63542C14.8078 6.59986 14.7752 6.57109 14.737 6.55195L14.1711 6.2689L14.288 6.03519H15.1183ZM3.74239 4.59931L3.74804 4.59489C4.17838 4.24945 4.70468 4.04493 5.25536 4.00915L7.99898 3.82625L10.7426 4.00915C11.2933 4.04505 11.8195 4.24956 12.2499 4.59489L12.2553 4.59931C12.5577 4.84319 12.8044 5.14907 12.9785 5.49634L13.2478 6.03495L2.74987 6.03519L3.01942 5.49634C3.19368 5.14919 3.44019 4.84334 3.74239 4.59931ZM10.5477 11.436H5.28073L4.03232 11.4309L1.86167 11.2139V10.7813L2.4349 10.0163L5.26101 10.4511C5.27343 10.4531 5.28599 10.454 5.29857 10.4541H10.6992C10.7116 10.4541 10.7241 10.4531 10.7365 10.4511L13.5626 10.0166L14.1363 10.7813V11.2139L11.9654 11.4309L10.5477 11.436ZM14.8728 7.58253V8.38873L13.7739 9.48755L10.6805 9.96307H5.31722L2.22402 9.48731L1.1252 8.38848V7.58229L1.53885 6.96193L2.36935 6.54655L4.13861 8.41328C4.16881 8.44519 4.20686 8.46827 4.24933 8.4803L5.96778 8.97128C5.98938 8.97791 6.01221 8.9811 6.03504 8.9811H7.01701C7.05506 8.9811 7.09287 8.97226 7.12675 8.95532L7.56593 8.73561H8.43178L8.87097 8.95532C8.90509 8.97226 8.9429 8.9811 8.98095 8.9811H9.96292C9.98568 8.98114 10.0083 8.97792 10.0302 8.97153L11.7486 8.48054C11.7888 8.46915 11.8254 8.44769 11.8549 8.41819L13.6934 6.5792L14.4591 6.96217L14.8728 7.58253Z" fill="#576175"/>
<path d="M7.75351 8.98085H8.24449V9.47183H7.75351V8.98085Z" fill="#576175"/>
</svg>
