<svg width="14" height="16" viewBox="0 0 14 8" fill="none" xmlns="http://www.w3.org/2000/svg">
<path fill-rule="evenodd" clip-rule="evenodd" d="M0.5 7.33472C0.5 7.61086 0.723858 7.83472 1 7.83472H13C13.2761 7.83472 13.5 7.61086 13.5 7.33472C13.5 7.05857 13.2761 6.83472 13 6.83472H1C0.723858 6.83472 0.5 7.05857 0.5 7.33472Z" fill="#576175"/>
<path fill-rule="evenodd" clip-rule="evenodd" d="M2.5 4.00138C2.5 4.27753 2.72386 4.50138 3 4.50138H11C11.2761 4.50138 11.5 4.27753 11.5 4.00138C11.5 3.72524 11.2761 3.50138 11 3.50138H3C2.72386 3.50138 2.5 3.72524 2.5 4.00138Z" fill="#576175"/>
<path fill-rule="evenodd" clip-rule="evenodd" d="M5.16667 0.66805C5.16667 0.944192 5.39052 1.16805 5.66667 1.16805H8.33333C8.60948 1.16805 8.83333 0.944192 8.83333 0.66805C8.83333 0.391908 8.60948 0.16805 8.33333 0.16805H5.66667C5.39052 0.16805 5.16667 0.391908 5.16667 0.66805Z" fill="#576175"/>
</svg>
