<svg width="14" height="16" viewBox="0 0 14 14" fill="none" xmlns="http://www.w3.org/2000/svg">
<path fill-rule="evenodd" clip-rule="evenodd" d="M7.77255 11.9587C7.77255 11.5306 7.42548 11.1835 6.99736 11.1835C6.56923 11.1835 6.22216 11.5306 6.22216 11.9587C6.22216 12.3868 6.56923 12.7339 6.99736 12.7339C7.42548 12.7339 7.77255 12.3868 7.77255 11.9587ZM6.99736 10.2533C7.93924 10.2533 8.70278 11.0168 8.70278 11.9587C8.70278 12.9006 7.93924 13.6641 6.99736 13.6641C6.05547 13.6641 5.29193 12.9006 5.29193 11.9587C5.29193 11.0168 6.05547 10.2533 6.99736 10.2533Z" fill="#576175"/>
<path fill-rule="evenodd" clip-rule="evenodd" d="M12.7338 11.9587C12.7338 11.5306 12.3867 11.1835 11.9586 11.1835C11.5305 11.1835 11.1834 11.5306 11.1834 11.9587C11.1834 12.3868 11.5305 12.7339 11.9586 12.7339C12.3867 12.7339 12.7338 12.3868 12.7338 11.9587ZM11.9586 10.2533C12.9005 10.2533 13.664 11.0168 13.664 11.9587C13.664 12.9006 12.9005 13.6641 11.9586 13.6641C11.0167 13.6641 10.2532 12.9006 10.2532 11.9587C10.2532 11.0168 11.0167 10.2533 11.9586 10.2533Z" fill="#576175"/>
<path fill-rule="evenodd" clip-rule="evenodd" d="M2.81131 11.9587C2.81131 11.5306 2.46424 11.1835 2.03612 11.1835C1.60799 11.1835 1.26092 11.5306 1.26092 11.9587C1.26092 12.3868 1.60799 12.7339 2.03611 12.7339C2.46424 12.7339 2.81131 12.3868 2.81131 11.9587ZM2.03612 10.2533C2.978 10.2533 3.74154 11.0168 3.74154 11.9587C3.74154 12.9006 2.978 13.6641 2.03611 13.6641C1.09423 13.6641 0.330688 12.9006 0.330688 11.9587C0.330689 11.0168 1.09423 10.2533 2.03612 10.2533Z" fill="#576175"/>
<path fill-rule="evenodd" clip-rule="evenodd" d="M7.77255 2.03624C7.77255 1.60811 7.42548 1.26104 6.99736 1.26104C6.56923 1.26104 6.22216 1.60811 6.22216 2.03624C6.22216 2.46436 6.56923 2.81143 6.99736 2.81143C7.42548 2.81143 7.77255 2.46437 7.77255 2.03624ZM6.99736 0.330811C7.93924 0.330811 8.70278 1.09436 8.70278 2.03624C8.70278 2.97812 7.93924 3.74166 6.99736 3.74166C6.05548 3.74166 5.29193 2.97812 5.29193 2.03624C5.29193 1.09436 6.05548 0.330811 6.99736 0.330811Z" fill="#576175"/>
<path fill-rule="evenodd" clip-rule="evenodd" d="M6.99736 2.81143C7.25423 2.81143 7.46247 3.01967 7.46247 3.27655L7.46247 10.7184C7.46247 10.9753 7.25423 11.1835 6.99736 11.1835C6.74048 11.1835 6.53224 10.9753 6.53224 10.7184L6.53224 3.27655C6.53224 3.01967 6.74048 2.81143 6.99736 2.81143Z" fill="#576175"/>
<path fill-rule="evenodd" clip-rule="evenodd" d="M11.8224 6.51355C12.2504 6.94162 12.4237 7.54594 12.4237 8.23779V10.7184C12.4237 10.9753 12.2155 11.1835 11.9586 11.1835C11.7017 11.1835 11.4935 10.9753 11.4935 10.7184V8.23779C11.4935 7.68933 11.3567 7.36341 11.1646 7.17133C10.9725 6.97924 10.6466 6.84244 10.0981 6.84244L3.89658 6.84244C3.34812 6.84244 3.02221 6.97924 2.83012 7.17133C2.63803 7.36341 2.50123 7.68933 2.50123 8.23779V10.7184C2.50123 10.9753 2.29299 11.1835 2.03612 11.1835C1.77924 11.1835 1.571 10.9753 1.571 10.7184L1.571 8.23779C1.571 7.54594 1.74428 6.94162 2.17234 6.51355C2.60041 6.08548 3.20473 5.91221 3.89658 5.91221L10.0981 5.91221C10.79 5.91221 11.3943 6.08548 11.8224 6.51355Z" fill="#576175"/>
</svg>
