<svg width="16" height="16" viewBox="0 0 16 16" fill="none" xmlns="http://www.w3.org/2000/svg">
<path fill-rule="evenodd" clip-rule="evenodd" d="M5.13936 2.81965C4.66685 3.40624 4.49998 4.26007 4.49998 5.3335V6.66683C4.49998 6.94297 4.27612 7.16683 3.99998 7.16683C3.72384 7.16683 3.49998 6.94297 3.49998 6.66683V5.3335C3.49998 4.20025 3.66644 3.05408 4.3606 2.19234C5.07357 1.30724 6.24774 0.833496 7.99998 0.833496C9.75222 0.833496 10.9264 1.30724 11.6394 2.19234C12.3335 3.05408 12.5 4.20025 12.5 5.3335V6.66683C12.5 6.94297 12.2761 7.16683 12 7.16683C11.7238 7.16683 11.5 6.94297 11.5 6.66683V5.3335C11.5 4.26007 11.3331 3.40624 10.8606 2.81965C10.4069 2.25642 9.58107 1.8335 7.99998 1.8335C6.41889 1.8335 5.59306 2.25642 5.13936 2.81965Z" fill="#C4CAD4"/>
<path fill-rule="evenodd" clip-rule="evenodd" d="M7.99998 9.50016C7.35565 9.50016 6.83331 10.0225 6.83331 10.6668C6.83331 11.3112 7.35565 11.8335 7.99998 11.8335C8.64431 11.8335 9.16665 11.3112 9.16665 10.6668C9.16665 10.0225 8.64431 9.50016 7.99998 9.50016ZM5.83331 10.6668C5.83331 9.47021 6.80336 8.50016 7.99998 8.50016C9.1966 8.50016 10.1666 9.47021 10.1666 10.6668C10.1666 11.8634 9.1966 12.8335 7.99998 12.8335C6.80336 12.8335 5.83331 11.8634 5.83331 10.6668Z" fill="#C4CAD4"/>
<path fill-rule="evenodd" clip-rule="evenodd" d="M2.35353 7.68705C2.01254 8.02805 1.83331 8.66326 1.83331 10.0002V11.3335C1.83331 12.6704 2.01254 13.3056 2.35353 13.6466C2.69453 13.9876 3.32974 14.1668 4.66665 14.1668H11.3333C12.6702 14.1668 13.3054 13.9876 13.6464 13.6466C13.9874 13.3056 14.1666 12.6704 14.1666 11.3335V10.0002C14.1666 8.66326 13.9874 8.02805 13.6464 7.68705C13.3054 7.34605 12.6702 7.16683 11.3333 7.16683H4.66665C3.32974 7.16683 2.69453 7.34605 2.35353 7.68705ZM1.64643 6.97994C2.30543 6.32094 3.33689 6.16683 4.66665 6.16683H11.3333C12.6631 6.16683 13.6945 6.32094 14.3535 6.97994C15.0125 7.63895 15.1666 8.6704 15.1666 10.0002V11.3335C15.1666 12.6633 15.0125 13.6947 14.3535 14.3537C13.6945 15.0127 12.6631 15.1668 11.3333 15.1668H4.66665C3.33689 15.1668 2.30543 15.0127 1.64643 14.3537C0.987423 13.6947 0.833313 12.6633 0.833313 11.3335V10.0002C0.833313 8.6704 0.987423 7.63895 1.64643 6.97994Z" fill="#C4CAD4"/>
</svg>
